{
	"asset":{
		"generator":"Khronos glTF Blender I/O v4.0.44",
		"version":"2.0"
	},
	"extensionsUsed":[
		"KHR_materials_specular",
		"KHR_materials_ior"
	],
	"scene":0,
	"scenes":[
		{
			"name":"Scene",
			"nodes":[
				0
			]
		}
	],
	"nodes":[
		{
			"mesh":0,
			"name":"window.002",
			"rotation":[
				0,
				-1,
				0,
				3.1786502319164356e-08
			],
			"scale":[
				24.757186889648438,
				24.757186889648438,
				24.757186889648438
			],
			"translation":[
				-17.53563117980957,
				25.82735252380371,
				85.82762908935547
			]
		}
	],
	"materials":[
		{
			"doubleSided":true,
			"name":"wood",
			"normalTexture":{
				"index":0
			},
			"pbrMetallicRoughness":{
				"baseColorTexture":{
					"index":1
				},
				"metallicFactor":0
			}
		},
		{
			"alphaMode":"BLEND",
			"doubleSided":true,
			"name":"glass",
			"pbrMetallicRoughness":{}
		},
		{
			"doubleSided":true,
			"extensions":{
				"KHR_materials_specular":{
					"specularColorFactor":[
						4.800000190734863,
						4.800000190734863,
						4.800000190734863
					]
				},
				"KHR_materials_ior":{
					"ior":1.4500000476837158
				}
			},
			"name":"iron",
			"pbrMetallicRoughness":{
				"baseColorFactor":[
					0.5341548323631287,
					0.5341548323631287,
					0.5341548323631287,
					1
				]
			}
		},
		{
			"doubleSided":true,
			"name":"sheet metal",
			"pbrMetallicRoughness":{
				"metallicFactor":0
			}
		},
		{
			"doubleSided":true,
			"extensions":{
				"KHR_materials_specular":{
					"specularColorFactor":[
						4.599999904632568,
						4.599999904632568,
						4.599999904632568
					]
				},
				"KHR_materials_ior":{
					"ior":1.4500000476837158
				}
			},
			"name":"hlinik",
			"normalTexture":{
				"index":2
			},
			"pbrMetallicRoughness":{
				"baseColorFactor":[
					0.800000011920929,
					0.800000011920929,
					0.800000011920929,
					1
				]
			}
		},
		{
			"doubleSided":true,
			"name":"guma",
			"pbrMetallicRoughness":{
				"baseColorFactor":[
					0.003953271545469761,
					0.003953271545469761,
					0.003953271545469761,
					1
				],
				"metallicFactor":0,
				"roughnessFactor":0.9636363983154297
			}
		}
	],
	"meshes":[
		{
			"name":"Cube.001",
			"primitives":[
				{
					"attributes":{
						"POSITION":0,
						"NORMAL":1,
						"TEXCOORD_0":2
					},
					"indices":3,
					"material":0
				},
				{
					"attributes":{
						"POSITION":4,
						"NORMAL":5,
						"TEXCOORD_0":6
					},
					"indices":7,
					"material":1
				},
				{
					"attributes":{
						"POSITION":8,
						"NORMAL":9,
						"TEXCOORD_0":10
					},
					"indices":11,
					"material":2
				},
				{
					"attributes":{
						"POSITION":12,
						"NORMAL":13,
						"TEXCOORD_0":14
					},
					"indices":15,
					"material":3
				},
				{
					"attributes":{
						"POSITION":16,
						"NORMAL":17,
						"TEXCOORD_0":18
					},
					"indices":19,
					"material":4
				},
				{
					"attributes":{
						"POSITION":20,
						"NORMAL":21,
						"TEXCOORD_0":22
					},
					"indices":23,
					"material":5
				}
			]
		}
	],
	"textures":[
		{
			"sampler":0,
			"source":0
		},
		{
			"sampler":0,
			"source":0
		},
		{
			"sampler":0,
			"source":1
		}
	],
	"images":[
		{
			"mimeType":"image/jpeg",
			"name":"AM109_008_EU_wood_color",
			"uri":"AM109_008_EU_wood_color.jpg"
		},
		{
			"mimeType":"image/jpeg",
			"name":"AM109_008_alu_bump",
			"uri":"AM109_008_alu_bump.jpg"
		}
	],
	"accessors":[
		{
			"bufferView":0,
			"componentType":5126,
			"count":549,
			"max":[
				0.37158870697021484,
				0.9172144532203674,
				-0.003150312229990959
			],
			"min":[
				-0.551824688911438,
				-0.35022464394569397,
				-0.09115100651979446
			],
			"type":"VEC3"
		},
		{
			"bufferView":1,
			"componentType":5126,
			"count":549,
			"type":"VEC3"
		},
		{
			"bufferView":2,
			"componentType":5126,
			"count":549,
			"type":"VEC2"
		},
		{
			"bufferView":3,
			"componentType":5123,
			"count":1176,
			"type":"SCALAR"
		},
		{
			"bufferView":4,
			"componentType":5126,
			"count":24,
			"max":[
				0.26754793524742126,
				0.8132146000862122,
				-0.04713154956698418
			],
			"min":[
				-0.44782477617263794,
				-0.24622467160224915,
				-0.057689763605594635
			],
			"type":"VEC3"
		},
		{
			"bufferView":5,
			"componentType":5126,
			"count":24,
			"type":"VEC3"
		},
		{
			"bufferView":6,
			"componentType":5126,
			"count":24,
			"type":"VEC2"
		},
		{
			"bufferView":7,
			"componentType":5123,
			"count":36,
			"type":"SCALAR"
		},
		{
			"bufferView":8,
			"componentType":5126,
			"count":176,
			"max":[
				0.3165585398674011,
				0.4048506021499634,
				-0.0910135880112648
			],
			"min":[
				0.2875185012817383,
				0.2623427212238312,
				-0.15234257280826569
			],
			"type":"VEC3"
		},
		{
			"bufferView":9,
			"componentType":5126,
			"count":176,
			"type":"VEC3"
		},
		{
			"bufferView":10,
			"componentType":5126,
			"count":176,
			"type":"VEC2"
		},
		{
			"bufferView":11,
			"componentType":5123,
			"count":876,
			"type":"SCALAR"
		},
		{
			"bufferView":12,
			"componentType":5126,
			"count":550,
			"max":[
				0.3716220259666443,
				-0.2673080265522003,
				0.2464556097984314
			],
			"min":[
				-0.5518255233764648,
				-0.4049760401248932,
				-0.021332113072276115
			],
			"type":"VEC3"
		},
		{
			"bufferView":13,
			"componentType":5126,
			"count":550,
			"type":"VEC3"
		},
		{
			"bufferView":14,
			"componentType":5126,
			"count":550,
			"type":"VEC2"
		},
		{
			"bufferView":15,
			"componentType":5123,
			"count":1656,
			"type":"SCALAR"
		},
		{
			"bufferView":16,
			"componentType":5126,
			"count":32,
			"max":[
				0.26625123620033264,
				0.8118646740913391,
				-0.04804171621799469
			],
			"min":[
				-0.4465280771255493,
				-0.24487486481666565,
				-0.056745175272226334
			],
			"type":"VEC3"
		},
		{
			"bufferView":17,
			"componentType":5126,
			"count":32,
			"type":"VEC3"
		},
		{
			"bufferView":18,
			"componentType":5126,
			"count":32,
			"type":"VEC2"
		},
		{
			"bufferView":19,
			"componentType":5123,
			"count":72,
			"type":"SCALAR"
		},
		{
			"bufferView":20,
			"componentType":5126,
			"count":32,
			"max":[
				0.2665479779243469,
				0.8122146725654602,
				-0.04733017459511757
			],
			"min":[
				-0.446824848651886,
				-0.24522480368614197,
				-0.05745677649974823
			],
			"type":"VEC3"
		},
		{
			"bufferView":21,
			"componentType":5126,
			"count":32,
			"type":"VEC3"
		},
		{
			"bufferView":22,
			"componentType":5126,
			"count":32,
			"type":"VEC2"
		},
		{
			"bufferView":23,
			"componentType":5123,
			"count":48,
			"type":"SCALAR"
		}
	],
	"bufferViews":[
		{
			"buffer":0,
			"byteLength":6588,
			"byteOffset":0,
			"target":34962
		},
		{
			"buffer":0,
			"byteLength":6588,
			"byteOffset":6588,
			"target":34962
		},
		{
			"buffer":0,
			"byteLength":4392,
			"byteOffset":13176,
			"target":34962
		},
		{
			"buffer":0,
			"byteLength":2352,
			"byteOffset":17568,
			"target":34963
		},
		{
			"buffer":0,
			"byteLength":288,
			"byteOffset":19920,
			"target":34962
		},
		{
			"buffer":0,
			"byteLength":288,
			"byteOffset":20208,
			"target":34962
		},
		{
			"buffer":0,
			"byteLength":192,
			"byteOffset":20496,
			"target":34962
		},
		{
			"buffer":0,
			"byteLength":72,
			"byteOffset":20688,
			"target":34963
		},
		{
			"buffer":0,
			"byteLength":2112,
			"byteOffset":20760,
			"target":34962
		},
		{
			"buffer":0,
			"byteLength":2112,
			"byteOffset":22872,
			"target":34962
		},
		{
			"buffer":0,
			"byteLength":1408,
			"byteOffset":24984,
			"target":34962
		},
		{
			"buffer":0,
			"byteLength":1752,
			"byteOffset":26392,
			"target":34963
		},
		{
			"buffer":0,
			"byteLength":6600,
			"byteOffset":28144,
			"target":34962
		},
		{
			"buffer":0,
			"byteLength":6600,
			"byteOffset":34744,
			"target":34962
		},
		{
			"buffer":0,
			"byteLength":4400,
			"byteOffset":41344,
			"target":34962
		},
		{
			"buffer":0,
			"byteLength":3312,
			"byteOffset":45744,
			"target":34963
		},
		{
			"buffer":0,
			"byteLength":384,
			"byteOffset":49056,
			"target":34962
		},
		{
			"buffer":0,
			"byteLength":384,
			"byteOffset":49440,
			"target":34962
		},
		{
			"buffer":0,
			"byteLength":256,
			"byteOffset":49824,
			"target":34962
		},
		{
			"buffer":0,
			"byteLength":144,
			"byteOffset":50080,
			"target":34963
		},
		{
			"buffer":0,
			"byteLength":384,
			"byteOffset":50224,
			"target":34962
		},
		{
			"buffer":0,
			"byteLength":384,
			"byteOffset":50608,
			"target":34962
		},
		{
			"buffer":0,
			"byteLength":256,
			"byteOffset":50992,
			"target":34962
		},
		{
			"buffer":0,
			"byteLength":96,
			"byteOffset":51248,
			"target":34963
		}
	],
	"samplers":[
		{
			"magFilter":9729,
			"minFilter":9987
		}
	],
	"buffers":[
		{
			"byteLength":51344,
			"uri":"%D0%BE%D0%BA%D0%BD%D0%BE.bin"
		}
	]
}
